# This file uses centimeters as units for non-parametric coordinates.

mtllib hlsspindle.mtl
v 0.250022 0.444464 -0.336783
v 0.083370 0.111159 -0.048133
v 0.416674 0.444464 -0.048134
v 0.249999 0.500000 -0.433012
v 0.000000 0.000000 0.000000
v 0.499999 0.500000 0.000000
v -0.416674 0.444464 -0.048134
v -0.083369 0.111158 -0.048133
v -0.250021 0.444464 -0.336784
v -0.499999 0.500000 -0.000000
v -0.250000 0.500000 -0.433013
v -0.250022 0.444464 0.336783
v -0.083370 0.111159 0.048133
v -0.416674 0.444464 0.048134
v -0.249999 0.500000 0.433012
v 0.166653 0.444464 0.384917
v 0.000000 0.111158 0.096266
v -0.166652 0.444464 0.384917
v 0.250000 0.500000 0.433013
v 0.416674 0.444464 0.048134
v 0.083369 0.111158 0.048133
v 0.250021 0.444464 0.336784
v -0.166653 0.444464 -0.384917
v -0.000000 0.111158 -0.096266
v 0.166652 0.444464 -0.384917
v 0.250022 0.555536 -0.336783
v 0.083370 0.888841 -0.048133
v 0.416674 0.555536 -0.048134
v 0.000000 1.000000 0.000000
v -0.416674 0.555537 -0.048134
v -0.083369 0.888842 -0.048133
v -0.250021 0.555537 -0.336784
v -0.250022 0.555536 0.336783
v -0.083370 0.888841 0.048133
v -0.416674 0.555536 0.048134
v 0.166653 0.555537 0.384917
v 0.000000 0.888842 0.096266
v -0.166652 0.555536 0.384917
v 0.416674 0.555537 0.048134
v 0.083369 0.888842 0.048133
v 0.250021 0.555537 0.336784
v -0.166653 0.555537 -0.384917
v -0.000000 0.888842 -0.096266
v 0.166652 0.555536 -0.384917
vt 0.148378 0.444464
vt 0.083349 0.111160
vt 0.166683 0.500000
vt 0.018320 0.444464
vt 0.000016 0.500000
vt 0.481712 0.444464
vt 0.416682 0.111159
vt 0.500016 0.500000
vt 0.351653 0.444464
vt 0.333349 0.500000
vt 0.648378 0.444464
vt 0.583349 0.111160
vt 0.666683 0.500000
vt 0.518320 0.444464
vt 0.815045 0.444464
vt 0.750016 0.111159
vt 0.833349 0.500000
vt 0.684987 0.444464
vt 0.981712 0.444464
vt 0.916682 0.111159
vt 1.000016 0.500000
vt 0.851653 0.444464
vt 0.315045 0.444464
vt 0.250016 0.111159
vt 0.184987 0.444464
vt 0.148378 0.555536
vt 0.083349 0.888840
vt 0.018320 0.555536
vt 0.481712 0.555536
vt 0.416682 0.888841
vt 0.351653 0.555536
vt 0.648378 0.555536
vt 0.583349 0.888840
vt 0.518320 0.555536
vt 0.815045 0.555536
vt 0.750016 0.888841
vt 0.684987 0.555536
vt 0.981712 0.555536
vt 0.916719 0.888841
vt 0.851653 0.555536
vt 0.315045 0.555536
vt 0.250016 0.888841
vt 0.184987 0.555536
vt 0.250016 0.111159
vt 0.333480 0.000000
vt 0.500000 0.000000
vt 0.666172 0.000000
vt 0.833358 0.000000
vt 1.000000 0.000000
vt 0.000000 0.000000
vt 0.166708 0.000000
vt 0.916682 0.111159
vt 0.750016 0.111159
vt 0.583349 0.111160
vt 0.416682 0.111159
vt 0.083349 0.111160
vt 0.164790 1.000000
vt 0.000000 1.000000
vt 1.000000 1.000000
vt 0.834106 1.000000
vt 0.666491 1.000000
vt 0.500000 1.000000
vt 0.332792 1.000000
vt 0.250016 0.888841
vt 0.916719 0.888841
vt 0.750016 0.888841
vt 0.583349 0.888840
vt 0.416682 0.888841
vt 0.083349 0.888840
vn 0.000000 -1.000000 0.000000
vn 0.000000 -1.000000 0.000000
vn 0.000000 -1.000000 0.000000
vn 0.000000 -1.000000 0.000000
vn 0.000000 -1.000000 0.000000
vn 0.000000 -1.000000 0.000000
vn 0.000000 -1.000000 0.000000
vn 0.000000 -1.000000 0.000000
vn 0.000000 -1.000000 0.000000
vn 0.000000 -1.000000 0.000000
vn 0.000000 -1.000000 0.000000
vn 0.000000 -1.000000 0.000000
vn 0.000000 -1.000000 0.000000
vn 0.000000 -1.000000 0.000000
vn 0.000000 -1.000000 0.000000
vn 0.000000 -1.000000 0.000000
vn 0.000000 -1.000000 0.000000
vn 0.000000 -1.000000 0.000000
vn 0.000000 -1.000000 0.000000
vn 0.000000 -1.000000 0.000000
vn 0.000000 -1.000000 0.000000
vn 0.000000 -1.000000 0.000000
vn 0.000000 -1.000000 0.000000
vn 0.000000 -1.000000 0.000000
vn 0.000000 -1.000000 0.000000
vn 0.000000 -1.000000 0.000000
vn 0.000000 -1.000000 0.000000
vn 0.000000 -1.000000 0.000000
vn 0.000000 -1.000000 0.000000
vn 0.000000 -1.000000 0.000000
vn 0.000000 -1.000000 0.000000
vn 0.000000 -1.000000 0.000000
vn 0.000000 -1.000000 0.000000
vn 0.000000 -1.000000 0.000000
vn 0.000000 -1.000000 0.000000
vn 0.000000 -1.000000 0.000000
vn 0.000000 -1.000000 0.000000
vn 0.000000 -1.000000 0.000000
vn 0.000000 -1.000000 0.000000
vn 0.000000 -1.000000 0.000000
vn 0.000000 -1.000000 0.000000
vn 0.000000 -1.000000 0.000000
vn 0.000000 -1.000000 0.000000
vn 0.000000 -1.000000 0.000000
vn 0.000000 -1.000000 0.000000
vn 0.000000 -1.000000 0.000000
vn 0.000000 -1.000000 0.000000
vn 0.000000 -1.000000 0.000000
vn 0.000000 -1.000000 0.000000
vn 0.000000 -1.000000 0.000000
vn 0.000000 -1.000000 0.000000
vn 0.000000 -1.000000 0.000000
vn 0.000000 -1.000000 0.000000
vn 0.000000 -1.000000 0.000000
vn 0.000000 -1.000000 0.000000
vn 0.000000 -1.000000 0.000000
vn 0.000000 -1.000000 0.000000
vn 0.000000 -1.000000 0.000000
vn 0.000000 -1.000000 0.000000
vn 0.000000 -1.000000 0.000000
vn 0.000000 -1.000000 0.000000
vn 0.000000 -1.000000 0.000000
vn 0.000000 -1.000000 0.000000
vn 0.000000 -1.000000 0.000000
vn 0.000000 -1.000000 0.000000
vn 0.000000 -1.000000 0.000000
vn 0.000000 -1.000000 0.000000
vn 0.000000 -1.000000 0.000000
vn 0.000000 -1.000000 0.000000
vn 0.000000 -1.000000 0.000000
vn 0.000000 -1.000000 0.000000
vn 0.000000 -1.000000 0.000000
vn 0.000000 1.000000 0.000000
vn 0.000000 1.000000 0.000000
vn 0.000000 1.000000 0.000000
vn 0.000000 1.000000 0.000000
vn 0.000000 1.000000 0.000000
vn 0.000000 1.000000 0.000000
vn 0.000000 1.000000 0.000000
vn 0.000000 1.000000 0.000000
vn 0.000000 1.000000 0.000000
vn 0.000000 1.000000 0.000000
vn 0.000000 1.000000 0.000000
vn 0.000000 1.000000 0.000000
vn 0.000000 1.000000 0.000000
vn 0.000000 1.000000 0.000000
vn 0.000000 1.000000 0.000000
vn 0.000000 1.000000 0.000000
vn 0.000000 1.000000 0.000000
vn 0.000000 1.000000 0.000000
vn 0.000000 1.000000 0.000000
vn 0.000000 1.000000 0.000000
vn 0.000000 1.000000 0.000000
vn 0.000000 1.000000 0.000000
vn 0.000000 1.000000 0.000000
vn 0.000000 1.000000 0.000000
vn 0.000000 1.000000 0.000000
vn 0.000000 1.000000 0.000000
vn 0.000000 1.000000 0.000000
vn 0.000000 1.000000 0.000000
vn 0.000000 1.000000 0.000000
vn 0.000000 1.000000 0.000000
vn 0.000000 1.000000 0.000000
vn 0.000000 1.000000 0.000000
vn 0.000000 1.000000 0.000000
vn 0.000000 1.000000 0.000000
vn 0.000000 1.000000 0.000000
vn 0.000000 1.000000 0.000000
vn 0.000000 1.000000 0.000000
vn 0.000000 1.000000 0.000000
vn 0.000000 1.000000 0.000000
vn 0.000000 1.000000 0.000000
vn 0.000000 1.000000 0.000000
vn 0.000000 1.000000 0.000000
vn 0.000000 1.000000 0.000000
vn 0.000000 1.000000 0.000000
vn 0.000000 1.000000 0.000000
vn 0.000000 1.000000 0.000000
vn 0.000000 1.000000 0.000000
vn 0.000000 1.000000 0.000000
vn 0.000000 1.000000 0.000000
vn 0.000000 1.000000 0.000000
vn 0.000000 1.000000 0.000000
vn 0.000000 1.000000 0.000000
vn 0.000000 1.000000 0.000000
vn 0.000000 1.000000 0.000000
vn 0.000000 1.000000 0.000000
vn 0.000000 1.000000 0.000000
vn 0.000000 1.000000 0.000000
vn 0.000000 1.000000 0.000000
vn 0.000000 1.000000 0.000000
vn 0.000000 1.000000 0.000000
vn 0.000000 1.000000 0.000000
vn 0.000000 1.000000 0.000000
vn 0.000000 1.000000 0.000000
vn 0.000000 1.000000 0.000000
vn 0.000000 1.000000 0.000000
vn 0.000000 1.000000 0.000000
vn 0.000000 1.000000 0.000000
vn 0.000000 1.000000 0.000000
vn 0.000000 1.000000 0.000000
vn 0.000000 1.000000 0.000000
vn 0.000000 1.000000 0.000000
vn 0.000000 1.000000 0.000000
usemtl hlsspindle:lambert2SG
f 1/1/1 2/2/2 5/51/3 4/3/4
f 2/56/5 3/4/6 6/5/7 5/50/8
f 3/4/9 1/1/10 4/3/11 6/5/12
f 7/6/13 8/7/14 5/46/15 10/8/16
f 8/55/17 9/9/18 11/10/19 5/45/20
f 9/9/21 7/6/22 10/8/23 11/10/24
f 12/11/25 13/12/26 5/47/27 15/13/28
f 13/54/29 14/14/30 10/8/31 5/46/32
f 14/14/33 12/11/34 15/13/35 10/8/36
f 16/15/37 17/16/38 5/48/39 19/17/40
f 17/53/41 18/18/42 15/13/43 5/47/44
f 18/18/45 16/15/46 19/17/47 15/13/48
f 20/19/49 21/20/50 5/49/51 6/21/52
f 21/52/53 22/22/54 19/17/55 5/48/56
f 22/22/57 20/19/58 6/21/59 19/17/60
f 23/23/61 24/24/62 5/45/63 11/10/64
f 24/44/65 25/25/66 4/3/67 5/51/68
f 25/25/69 23/23/70 11/10/71 4/3/72
f 26/26/73 4/3/74 29/57/75 27/69/76
f 27/27/77 29/58/78 6/5/79 28/28/80
f 28/28/81 6/5/82 4/3/83 26/26/84
f 30/29/85 10/8/86 29/62/87 31/68/88
f 31/30/89 29/63/90 11/10/91 32/31/92
f 32/31/93 11/10/94 10/8/95 30/29/96
f 33/32/97 15/13/98 29/61/99 34/67/100
f 34/33/101 29/62/102 10/8/103 35/34/104
f 35/34/105 10/8/106 15/13/107 33/32/108
f 36/35/109 19/17/110 29/60/111 37/66/112
f 37/36/113 29/61/114 15/13/115 38/37/116
f 38/37/117 15/13/118 19/17/119 36/35/120
f 39/38/121 6/21/122 29/59/123 40/65/124
f 40/39/125 29/60/126 19/17/127 41/40/128
f 41/40/129 19/17/130 6/21/131 39/38/132
f 42/41/133 11/10/134 29/63/135 43/64/136
f 43/42/137 29/57/138 4/3/139 44/43/140
f 44/43/141 4/3/142 11/10/143 42/41/144
