# Blender v2.76 (sub 0) OBJ File: 'virtualkeyboard.blend'
# www.blender.org
o 0
v 0.600130 -0.598395 -1.314104
v 0.562550 -0.781842 -1.231814
v 0.781039 -0.598395 -1.215321
v 0.732129 -0.781842 -1.139216
v 0.594453 -0.592734 -1.301672
v 0.557228 -0.774445 -1.220160
v 0.773650 -0.592734 -1.203823
v 0.725203 -0.774445 -1.128439
v 0.588956 -0.587253 -1.289635
v 0.552075 -0.767283 -1.208877
v 0.766495 -0.587253 -1.192691
v 0.718497 -0.767283 -1.118004
vt 0.751717 0.848591
vt 0.823684 0.848591
vt 0.823684 0.992763
vt 0.751717 0.992763
vn -0.430000 0.441400 0.787600
usemtl Material
s off
f 2/1/1 4/2/1 3/3/1
f 6/1/1 8/2/1 7/3/1
f 12/2/1 11/3/1 9/4/1
f 1/4/1 2/1/1 3/3/1
f 5/4/1 6/1/1 7/3/1
f 10/1/1 12/2/1 9/4/1
