# Blender v2.76 (sub 0) OBJ File: 'virtualkeyboard.blend'
# www.blender.org
o 1
v 0.838158 -0.204101 -1.304200
v 0.816584 -0.404711 -1.270630
v 1.015233 -0.204101 -1.171642
v 0.989102 -0.404711 -1.141485
v 0.830229 -0.202170 -1.291862
v 0.808859 -0.400882 -1.258610
v 1.005629 -0.202170 -1.160558
v 0.979745 -0.400882 -1.130686
v 0.822551 -0.200301 -1.279915
v 0.801379 -0.397175 -1.246971
v 0.996329 -0.200301 -1.149826
v 0.970684 -0.397175 -1.120230
vt 0.089122 0.849481
vt 0.089122 0.993653
vt 0.013131 0.993653
vt 0.013131 0.849481
vn -0.587800 0.194600 0.785200
usemtl Material
s off
f 4/1/1 3/2/1 1/3/1
f 8/1/1 7/2/1 5/3/1
f 12/1/1 11/2/1 9/3/1
f 2/4/1 4/1/1 1/3/1
f 6/4/1 8/1/1 5/3/1
f 10/4/1 12/1/1 9/3/1
