# Blender v2.76 (sub 0) OBJ File: 'virtualkeyboard.blend'
# www.blender.org
o 2
v 1.015233 -0.204101 -1.171642
v 0.989102 -0.404711 -1.141485
v 1.171642 -0.204101 -1.015234
v 1.141484 -0.404711 -0.989102
v 1.005629 -0.202170 -1.160558
v 0.979745 -0.400882 -1.130686
v 1.160558 -0.202170 -1.005630
v 1.130686 -0.400882 -0.979745
v 0.996329 -0.200301 -1.149826
v 0.970684 -0.397175 -1.120230
v 1.149826 -0.200301 -0.996330
v 1.120230 -0.397175 -0.970685
vt 0.169371 0.848993
vt 0.169371 0.993165
vt 0.093381 0.993165
vt 0.093381 0.848993
vn -0.693600 0.194600 0.693600
usemtl Material
s off
f 4/1/1 3/2/1 1/3/1
f 8/1/1 7/2/1 5/3/1
f 12/1/1 11/2/1 9/3/1
f 2/4/1 4/1/1 1/3/1
f 6/4/1 8/1/1 5/3/1
f 10/4/1 12/1/1 9/3/1
