# Blender v2.76 (sub 0) OBJ File: 'virtualkeyboard.blend'
# www.blender.org
o 3
v 1.171642 -0.204101 -1.015234
v 1.141484 -0.404711 -0.989102
v 1.304199 -0.204101 -0.838158
v 1.270630 -0.404711 -0.816585
v 1.160558 -0.202170 -1.005630
v 1.130686 -0.400882 -0.979745
v 1.291861 -0.202170 -0.830229
v 1.258609 -0.400882 -0.808859
v 1.149826 -0.200301 -0.996330
v 1.120230 -0.397175 -0.970685
v 1.279914 -0.200301 -0.822551
v 1.246970 -0.397175 -0.801379
vt 0.252708 0.847118
vt 0.252708 0.991290
vt 0.176717 0.991290
vt 0.176717 0.847118
vn -0.785200 0.194600 0.587800
usemtl Material
s off
f 4/1/1 3/2/1 1/3/1
f 8/1/1 7/2/1 5/3/1
f 12/1/1 11/2/1 9/3/1
f 2/4/1 4/1/1 1/3/1
f 6/4/1 8/1/1 5/3/1
f 10/4/1 12/1/1 9/3/1
