# Blender v2.76 (sub 0) OBJ File: 'virtualkeyboard.blend'
# www.blender.org
o 4
v 0.816584 -0.404711 -1.270630
v 0.781039 -0.598395 -1.215321
v 0.989102 -0.404711 -1.141485
v 0.946047 -0.598395 -1.091797
v 0.808859 -0.400882 -1.258610
v 0.773650 -0.592734 -1.203823
v 0.979745 -0.400882 -1.130686
v 0.937097 -0.592734 -1.081468
v 0.801379 -0.397175 -1.246971
v 0.766495 -0.587253 -1.192691
v 0.970684 -0.397175 -1.120230
v 0.928431 -0.587253 -1.071467
vt 0.334350 0.847447
vt 0.334350 0.991620
vt 0.258359 0.991620
vt 0.258359 0.847447
vn -0.567600 0.320700 0.758300
usemtl Material
s off
f 4/1/1 3/2/1 1/3/1
f 6/4/1 8/1/1 7/2/1
f 10/4/1 12/1/1 11/2/1
f 2/4/1 4/1/1 1/3/1
f 5/3/1 6/4/1 7/2/1
f 9/3/1 10/4/1 11/2/1
