# Blender v2.76 (sub 0) OBJ File: 'virtualkeyboard.blend'
# www.blender.org
o 9
v 1.091796 -0.598395 -0.946047
v 1.023427 -0.781842 -0.886805
v 1.215320 -0.598395 -0.781039
v 1.139216 -0.781842 -0.732130
v 1.081468 -0.592734 -0.937097
v 1.013745 -0.774445 -0.878416
v 1.203823 -0.592734 -0.773650
v 1.128438 -0.774445 -0.725204
v 1.071467 -0.587253 -0.928432
v 1.004371 -0.767283 -0.870293
v 1.192690 -0.587253 -0.766496
v 1.118003 -0.767283 -0.718497
vt 0.744451 0.846889
vt 0.744451 0.991061
vt 0.668179 0.991061
vt 0.668179 0.846889
vn -0.718300 0.441400 0.537700
usemtl Material
s off
f 4/1/1 3/2/1 1/3/1
f 8/1/1 7/2/1 5/3/1
f 10/4/1 12/1/1 11/2/1
f 2/4/1 4/1/1 1/3/1
f 6/4/1 8/1/1 5/3/1
f 9/3/1 10/4/1 11/2/1
