# Blender v2.76 (sub 0) OBJ File: 'virtualkeyboard.blend'
# www.blender.org
o a
v -1.171643 -0.204101 -1.015234
v -1.141486 -0.404711 -0.989103
v -1.015235 -0.204101 -1.171643
v -0.989103 -0.404711 -1.141485
v -1.160559 -0.202170 -1.005630
v -1.130687 -0.400882 -0.979746
v -1.005630 -0.202170 -1.160559
v -0.979746 -0.400882 -1.130687
v -1.149827 -0.200301 -0.996330
v -1.120231 -0.397175 -0.970685
v -0.996331 -0.200301 -1.149826
v -0.970686 -0.397175 -1.120231
vt 0.201476 0.452169
vt 0.201476 0.629823
vt 0.128998 0.629823
vt 0.128998 0.452169
vn 0.693600 0.194600 0.693600
usemtl Material
s off
f 4/1/1 3/2/1 1/3/1
f 8/1/1 7/2/1 5/3/1
f 12/1/1 11/2/1 9/3/1
f 2/4/1 4/1/1 1/3/1
f 6/4/1 8/1/1 5/3/1
f 10/4/1 12/1/1 9/3/1
