# Blender v2.76 (sub 0) OBJ File: 'virtualkeyboard.blend'
# www.blender.org
o c
v -0.816585 -0.404711 -1.270631
v -0.781040 -0.598395 -1.215321
v -0.627444 -0.404711 -1.373910
v -0.600132 -0.598395 -1.314104
v -0.808860 -0.400882 -1.258610
v -0.773651 -0.592734 -1.203823
v -0.621508 -0.400882 -1.360912
v -0.594454 -0.592734 -1.301672
v -0.801380 -0.397175 -1.246971
v -0.766497 -0.587253 -1.192691
v -0.615761 -0.397175 -1.348327
v -0.588957 -0.587253 -1.289635
vt 0.413855 0.242372
vt 0.413855 0.420025
vt 0.341377 0.420025
vt 0.341377 0.242372
vn 0.453900 0.320700 0.831300
usemtl Material
s off
f 4/1/1 3/2/1 1/3/1
f 8/1/1 7/2/1 5/3/1
f 12/1/1 11/2/1 9/3/1
f 2/4/1 4/1/1 1/3/1
f 6/4/1 8/1/1 5/3/1
f 10/4/1 12/1/1 9/3/1
