# Blender v2.79 (sub 0) OBJ File: 'virtualkeyboardsinglelayer.blend'
# www.blender.org
o CAP
v -0.818526 0.899723 -0.526035
v -0.797458 0.773819 -0.512495
v -0.735332 0.899723 -0.637169
v -0.716405 0.773819 -0.620768
v -0.830548 0.899723 -0.507327
v -0.809480 0.773819 -0.493788
vt 0.027666 0.452825
vt 0.118269 0.630478
vt 0.027666 0.630478
vt 0.012511 0.452825
vt 0.118269 0.452825
vt 0.012511 0.630478
vn 0.7852 0.1946 0.5878
vn 0.8251 0.1951 0.5303
vn 0.8251 0.1951 0.5302
usemtl Material
s off
f 2/1/1 3/2/1 1/3/1
f 1/3/2 6/4/2 2/1/2
f 2/1/1 4/5/1 3/2/1
f 1/3/3 5/6/3 6/4/3
