# Blender v2.76 (sub 0) OBJ File: 'virtualkeyboard.blend'
# www.blender.org
o ctrl
v -1.215321 -0.598395 -0.781039
v -1.139217 -0.781842 -0.732130
v -1.091798 -0.598395 -0.946048
v -1.023428 -0.781842 -0.886805
v -1.236084 -0.598395 -0.748733
v -1.159979 -0.781842 -0.699823
v -1.203824 -0.592734 -0.773650
v -1.128440 -0.774445 -0.725204
v -1.081469 -0.592734 -0.937098
v -1.013747 -0.774445 -0.878416
v -1.224390 -0.592734 -0.741650
v -1.149006 -0.774445 -0.693203
v -1.192692 -0.587253 -0.766496
v -1.118004 -0.767283 -0.718497
v -1.071468 -0.587253 -0.928432
v -1.004372 -0.767283 -0.870293
v -1.213067 -0.587253 -0.734791
v -1.138380 -0.767283 -0.686792
vt 0.029551 0.041710
vt 0.120264 0.041710
vt 0.120264 0.218534
vt 0.029551 0.218534
vt 0.013105 0.218534
vt 0.013105 0.041710
vn 0.718300 0.441400 0.537700
vn 0.754500 0.442300 0.484900
usemtl Material
s off
f 2/1/1 4/2/1 3/3/1
f 1/4/2 5/5/2 6/6/2
f 8/1/1 10/2/1 9/3/1
f 7/4/2 11/5/2 12/6/2
f 14/1/1 16/2/1 15/3/1
f 13/4/2 17/5/2 18/6/2
f 1/4/1 2/1/1 3/3/1
f 2/1/2 1/4/2 6/6/2
f 7/4/1 8/1/1 9/3/1
f 8/1/2 7/4/2 12/6/2
f 13/4/1 14/1/1 15/3/1
f 14/1/2 13/4/2 18/6/2
