# Blender v2.76 (sub 0) OBJ File: 'virtualkeyboard.blend'
# www.blender.org
o d
v -0.838159 -0.204101 -1.304200
v -0.816585 -0.404711 -1.270631
v -0.644021 -0.204101 -1.410207
v -0.627444 -0.404711 -1.373910
v -0.830230 -0.202170 -1.291862
v -0.808860 -0.400882 -1.258610
v -0.637928 -0.202170 -1.396866
v -0.621508 -0.400882 -1.360912
v -0.822552 -0.200301 -1.279915
v -0.801380 -0.397175 -1.246971
v -0.632029 -0.200301 -1.383949
v -0.615761 -0.397175 -1.348327
vt 0.365643 0.451761
vt 0.365643 0.629415
vt 0.293164 0.629415
vt 0.293164 0.451761
vn 0.470100 0.194600 0.860900
usemtl Material
s off
f 4/1/1 3/2/1 1/3/1
f 8/1/1 7/2/1 5/3/1
f 12/1/1 11/2/1 9/3/1
f 2/4/1 4/1/1 1/3/1
f 6/4/1 8/1/1 5/3/1
f 10/4/1 12/1/1 9/3/1
