# Blender v2.76 (sub 0) OBJ File: 'virtualkeyboard.blend'
# www.blender.org
o f
v -0.644021 -0.204101 -1.410207
v -0.627444 -0.404711 -1.373910
v -0.436772 -0.204101 -1.487507
v -0.425530 -0.404711 -1.449220
v -0.637928 -0.202170 -1.396866
v -0.621508 -0.400882 -1.360912
v -0.432640 -0.202170 -1.473435
v -0.421504 -0.400882 -1.435510
v -0.632029 -0.200301 -1.383949
v -0.615761 -0.397175 -1.348327
v -0.428639 -0.200301 -1.459809
v -0.417606 -0.397175 -1.422235
vt 0.374346 0.453716
vt 0.446824 0.453716
vt 0.446824 0.631370
vt 0.374346 0.631370
vn 0.342800 0.194600 0.919000
usemtl Material
s off
f 2/1/1 4/2/1 3/3/1
f 8/2/1 7/3/1 5/4/1
f 12/2/1 11/3/1 9/4/1
f 1/4/1 2/1/1 3/3/1
f 6/1/1 8/2/1 5/4/1
f 10/1/1 12/2/1 9/4/1
