# Blender v2.76 (sub 0) OBJ File: 'virtualkeyboard.blend'
# www.blender.org
o g
v -0.436772 -0.204101 -1.487507
v -0.425530 -0.404711 -1.449220
v -0.220632 -0.204101 -1.534525
v -0.214953 -0.404711 -1.495028
v -0.432640 -0.202170 -1.473435
v -0.421504 -0.400882 -1.435510
v -0.218545 -0.202170 -1.520008
v -0.212920 -0.400882 -1.480884
v -0.428639 -0.200301 -1.459809
v -0.417606 -0.397175 -1.422235
v -0.216524 -0.200301 -1.505952
v -0.210951 -0.397175 -1.467190
vt 0.456748 0.450784
vt 0.529227 0.450784
vt 0.529227 0.628438
vt 0.456748 0.628438
vn 0.208500 0.194600 0.958500
usemtl Material
s off
f 2/1/1 4/2/1 3/3/1
f 6/1/1 8/2/1 7/3/1
f 10/1/1 12/2/1 11/3/1
f 1/4/1 2/1/1 3/3/1
f 5/4/1 6/1/1 7/3/1
f 9/4/1 10/1/1 11/3/1
