# Blender v2.76 (sub 0) OBJ File: 'virtualkeyboard.blend'
# www.blender.org
o l
v 0.436771 -0.204101 -1.487507
v 0.425529 -0.404711 -1.449220
v 0.644020 -0.204101 -1.410207
v 0.627443 -0.404711 -1.373909
v 0.432639 -0.202170 -1.473435
v 0.421503 -0.400882 -1.435510
v 0.637927 -0.202170 -1.396866
v 0.621507 -0.400882 -1.360912
v 0.428638 -0.200301 -1.459809
v 0.417605 -0.397175 -1.422235
v 0.632028 -0.200301 -1.383949
v 0.615760 -0.397175 -1.348327
vt 0.858462 0.451761
vt 0.858462 0.629415
vt 0.785983 0.629415
vt 0.785983 0.451761
vn -0.342800 0.194600 0.919000
usemtl Material
s off
f 4/1/1 3/2/1 1/3/1
f 8/1/1 7/2/1 5/3/1
f 12/1/1 11/2/1 9/3/1
f 2/4/1 4/1/1 1/3/1
f 6/4/1 8/1/1 5/3/1
f 10/4/1 12/1/1 9/3/1
