# Blender v2.76 (sub 0) OBJ File: 'virtualkeyboard.blend'
# www.blender.org
o n
v -0.214953 -0.404711 -1.495028
v -0.205596 -0.598395 -1.429950
v -0.000001 -0.404711 -1.510401
v -0.000001 -0.598395 -1.444654
v -0.212920 -0.400882 -1.480884
v -0.203651 -0.592734 -1.416422
v -0.000001 -0.400882 -1.496113
v -0.000001 -0.592734 -1.430988
v -0.210951 -0.397175 -1.467190
v -0.201768 -0.587253 -1.403324
v -0.000001 -0.397175 -1.482277
v -0.000001 -0.587253 -1.417755
vt 0.660743 0.245143
vt 0.660743 0.422796
vt 0.588265 0.422797
vt 0.588265 0.245143
vn 0.067600 0.320700 0.944800
usemtl Material
s off
f 4/1/1 3/2/1 1/3/1
f 8/1/1 7/2/1 5/3/1
f 12/1/1 11/2/1 9/3/1
f 2/4/1 4/1/1 1/3/1
f 6/4/1 8/1/1 5/3/1
f 10/4/1 12/1/1 9/3/1
