# Blender v2.76 (sub 0) OBJ File: 'virtualkeyboard.blend'
# www.blender.org
o p
v 0.649577 0.000000 -1.422376
v 0.644020 -0.204101 -1.410207
v 0.845390 0.000000 -1.315453
v 0.838158 -0.204101 -1.304200
v 0.643431 0.000000 -1.408920
v 0.637927 -0.202170 -1.396866
v 0.837392 0.000000 -1.303009
v 0.830229 -0.202170 -1.291862
v 0.637481 0.000000 -1.395891
v 0.632028 -0.200301 -1.383949
v 0.829648 0.000000 -1.290959
v 0.822551 -0.200301 -1.279915
vt 0.817552 0.661484
vt 0.890030 0.661484
vt 0.890030 0.839137
vt 0.817552 0.839138
vn -0.478200 0.065200 0.875800
usemtl Material
s off
f 2/1/1 4/2/1 3/3/1
f 6/1/1 8/2/1 7/3/1
f 10/1/1 12/2/1 11/3/1
f 1/4/1 2/1/1 3/3/1
f 5/4/1 6/1/1 7/3/1
f 9/4/1 10/1/1 11/3/1
