# Blender v2.76 (sub 0) OBJ File: 'virtualkeyboard.blend'
# www.blender.org
o peirod
v 0.425529 -0.404711 -1.449220
v 0.407006 -0.598395 -1.386136
v 0.627443 -0.404711 -1.373909
v 0.600130 -0.598395 -1.314104
v 0.421503 -0.400882 -1.435510
v 0.403155 -0.592734 -1.373023
v 0.621507 -0.400882 -1.360912
v 0.594453 -0.592734 -1.301672
v 0.417605 -0.397175 -1.422235
v 0.399427 -0.587253 -1.360326
v 0.615760 -0.397175 -1.348327
v 0.588956 -0.587253 -1.289635
vt 0.833613 0.244326
vt 0.906092 0.244326
vt 0.906092 0.421980
vt 0.833613 0.421980
vn -0.331000 0.320700 0.887500
usemtl Material
s off
f 2/1/1 4/2/1 3/3/1
f 8/2/1 7/3/1 5/4/1
f 12/2/1 11/3/1 9/4/1
f 1/4/1 2/1/1 3/3/1
f 6/1/1 8/2/1 5/4/1
f 10/1/1 12/2/1 9/4/1
