# Blender v2.76 (sub 0) OBJ File: 'virtualkeyboard.blend'
# www.blender.org
o s
v -1.015235 -0.204101 -1.171643
v -0.989103 -0.404711 -1.141485
v -0.838159 -0.204101 -1.304200
v -0.816585 -0.404711 -1.270631
v -1.005630 -0.202170 -1.160559
v -0.979746 -0.400882 -1.130687
v -0.830230 -0.202170 -1.291862
v -0.808860 -0.400882 -1.258610
v -0.996331 -0.200301 -1.149826
v -0.970686 -0.397175 -1.120231
v -0.822552 -0.200301 -1.279915
v -0.801380 -0.397175 -1.246971
vt 0.282602 0.453716
vt 0.282602 0.631370
vt 0.210123 0.631370
vt 0.210123 0.453716
vn 0.587800 0.194600 0.785200
usemtl Material
s off
f 4/1/1 3/2/1 1/3/1
f 8/1/1 7/2/1 5/3/1
f 12/1/1 11/2/1 9/3/1
f 2/4/1 4/1/1 1/3/1
f 6/4/1 8/1/1 5/3/1
f 10/4/1 12/1/1 9/3/1
