# Blender v2.76 (sub 0) OBJ File: 'virtualkeyboard.blend'
# www.blender.org
o openbracket_openbrackets
v -1.091798 -0.598395 -0.946048
v -1.023428 -0.781842 -0.886805
v -0.946048 -0.598395 -1.091797
v -0.886806 -0.781842 -1.023428
v -1.081469 -0.592734 -0.937098
v -1.013747 -0.774445 -0.878416
v -0.937098 -0.592734 -1.081468
v -0.878417 -0.774445 -1.013746
v -1.071468 -0.587253 -0.928432
v -1.004372 -0.767283 -0.870293
v -0.928433 -0.587253 -1.071467
v -0.870293 -0.767283 -1.004371
vt 0.810671 0.025389
vt 0.810671 0.225941
vt 0.751689 0.225941
vt 0.751689 0.025389
vn 0.634500 0.441400 0.634500
usemtl Material
s off
f 4/1/1 3/2/1 1/3/1
f 6/4/1 8/1/1 7/2/1
f 10/4/1 12/1/1 11/2/1
f 2/4/1 4/1/1 1/3/1
f 5/3/1 6/4/1 7/2/1
f 9/3/1 10/4/1 11/2/1
