# Blender v2.79 (sub 0) OBJ File: 'virtualkeyboardsinglelayer.blend'
# www.blender.org
o SHIFT
v -0.797458 0.773819 -0.512495
v -0.762745 0.652261 -0.490186
v -0.716405 0.773819 -0.620768
v -0.685221 0.652261 -0.593747
v -0.824806 0.773819 -0.469941
v -0.790093 0.652261 -0.447632
vt 0.055217 0.245143
vt 0.168408 0.422796
vt 0.055217 0.422797
vt 0.012149 0.245143
vt 0.168408 0.245143
vt 0.012149 0.422797
vn 0.7583 0.3207 0.5676
vn 0.7966 0.3214 0.5120
vn 0.7966 0.3214 0.5119
usemtl Material
s off
f 2/1/1 3/2/1 1/3/1
f 1/3/2 6/4/2 2/1/2
f 2/1/1 4/5/1 3/2/1
f 1/3/3 5/6/3 6/4/3
