# Blender v2.76 (sub 0) OBJ File: 'virtualkeyboard.blend'
# www.blender.org
o SHIFT
v -1.270631 -0.404711 -0.816585
v -1.215321 -0.598395 -0.781039
v -1.141486 -0.404711 -0.989103
v -1.091798 -0.598395 -0.946048
v -1.314206 -0.404711 -0.748781
v -1.258896 -0.598395 -0.713236
v -1.258611 -0.400882 -0.808860
v -1.203824 -0.592734 -0.773650
v -1.130687 -0.400882 -0.979746
v -1.081469 -0.592734 -0.937098
v -1.301773 -0.400882 -0.741697
v -1.246987 -0.592734 -0.706488
v -1.246972 -0.397175 -0.801380
v -1.192692 -0.587253 -0.766496
v -1.120231 -0.397175 -0.970685
v -1.071468 -0.587253 -0.928432
v -1.289735 -0.397175 -0.734839
v -1.235455 -0.587253 -0.699955
vt 0.055217 0.245143
vt 0.168408 0.245143
vt 0.168408 0.422796
vt 0.055217 0.422797
vt 0.012149 0.422797
vt 0.012149 0.245143
vn 0.758300 0.320700 0.567600
vn 0.796600 0.321400 0.511900
vn 0.796600 0.321400 0.512000
usemtl Material
s off
f 2/1/1 4/2/1 3/3/1
f 1/4/2 5/5/2 6/6/2
f 8/1/1 10/2/1 9/3/1
f 7/4/2 11/5/2 12/6/2
f 14/1/1 16/2/1 15/3/1
f 13/4/3 17/5/3 18/6/3
f 1/4/1 2/1/1 3/3/1
f 2/1/2 1/4/2 6/6/2
f 7/4/1 8/1/1 9/3/1
f 8/1/2 7/4/2 12/6/2
f 13/4/1 14/1/1 15/3/1
f 14/1/3 13/4/3 18/6/3
