# Blender v2.76 (sub 0) OBJ File: 'virtualkeyboard.blend'
# www.blender.org
o question
v 0.627443 -0.404711 -1.373909
v 0.600130 -0.598395 -1.314104
v 0.816584 -0.404711 -1.270630
v 0.781039 -0.598395 -1.215321
v 0.621507 -0.400882 -1.360912
v 0.594453 -0.592734 -1.301672
v 0.808859 -0.400882 -1.258610
v 0.773650 -0.592734 -1.203823
v 0.615760 -0.397175 -1.348327
v 0.588956 -0.587253 -1.289635
v 0.801379 -0.397175 -1.246971
v 0.766495 -0.587253 -1.192691
vt 0.916044 0.244090
vt 0.988522 0.244090
vt 0.988522 0.421743
vt 0.916044 0.421744
vn -0.453900 0.320700 0.831300
usemtl Material
s off
f 2/1/1 4/2/1 3/3/1
f 8/2/1 7/3/1 5/4/1
f 10/1/1 12/2/1 11/3/1
f 1/4/1 2/1/1 3/3/1
f 6/1/1 8/2/1 5/4/1
f 9/4/1 10/1/1 11/3/1
