# Blender v2.76 (sub 0) OBJ File: 'virtualkeyboard.blend'
# www.blender.org
o v
v -0.627444 -0.404711 -1.373910
v -0.600132 -0.598395 -1.314104
v -0.425530 -0.404711 -1.449220
v -0.407007 -0.598395 -1.386136
v -0.621508 -0.400882 -1.360912
v -0.594454 -0.592734 -1.301672
v -0.421504 -0.400882 -1.435510
v -0.403156 -0.592734 -1.373023
v -0.615761 -0.397175 -1.348327
v -0.588957 -0.587253 -1.289635
v -0.417606 -0.397175 -1.422235
v -0.399428 -0.587253 -1.360326
vt 0.496286 0.248483
vt 0.496286 0.426137
vt 0.423807 0.426137
vt 0.423807 0.248483
vn 0.331000 0.320700 0.887500
usemtl Material
s off
f 4/1/1 3/2/1 1/3/1
f 8/1/1 7/2/1 5/3/1
f 12/1/1 11/2/1 9/3/1
f 2/4/1 4/1/1 1/3/1
f 6/4/1 8/1/1 5/3/1
f 10/4/1 12/1/1 9/3/1
