# Blender v2.76 (sub 0) OBJ File: 'virtualkeyboard.blend'
# www.blender.org
o x
v -0.989103 -0.404711 -1.141485
v -0.946048 -0.598395 -1.091797
v -0.816585 -0.404711 -1.270631
v -0.781040 -0.598395 -1.215321
v -0.979746 -0.400882 -1.130687
v -0.937098 -0.592734 -1.081468
v -0.808860 -0.400882 -1.258610
v -0.773651 -0.592734 -1.203823
v -0.970686 -0.397175 -1.120231
v -0.928433 -0.587253 -1.071467
v -0.801380 -0.397175 -1.246971
v -0.766497 -0.587253 -1.192691
vt 0.331828 0.244165
vt 0.331828 0.421819
vt 0.259350 0.421819
vt 0.259350 0.244165
vn 0.567600 0.320700 0.758300
usemtl Material
s off
f 4/1/1 3/2/1 1/3/1
f 8/1/1 7/2/1 5/3/1
f 12/1/1 11/2/1 9/3/1
f 2/4/1 4/1/1 1/3/1
f 6/4/1 8/1/1 5/3/1
f 10/4/1 12/1/1 9/3/1
