# Blender v2.76 (sub 0) OBJ File: 'virtualkeyboard.blend'
# www.blender.org
o z
v -1.141486 -0.404711 -0.989103
v -1.091798 -0.598395 -0.946048
v -0.989103 -0.404711 -1.141485
v -0.946048 -0.598395 -1.091797
v -1.130687 -0.400882 -0.979746
v -1.081469 -0.592734 -0.937098
v -0.979746 -0.400882 -1.130687
v -0.937098 -0.592734 -1.081468
v -1.120231 -0.397175 -0.970685
v -1.071468 -0.587253 -0.928432
v -0.970686 -0.397175 -1.120231
v -0.928433 -0.587253 -1.071467
vt 0.177558 0.241802
vt 0.250036 0.241802
vt 0.250036 0.419456
vt 0.177558 0.419456
vn 0.669800 0.320700 0.669800
usemtl Material
s off
f 2/1/1 4/2/1 3/3/1
f 8/2/1 7/3/1 5/4/1
f 10/1/1 12/2/1 11/3/1
f 1/4/1 2/1/1 3/3/1
f 6/1/1 8/2/1 5/4/1
f 9/4/1 10/1/1 11/3/1
